<?xml version="1.0" standalone="no"?>
<!DOCTYPE svg PUBLIC "-//W3C//DTD SVG 20010904//EN"
 "http://www.w3.org/TR/2001/REC-SVG-20010904/DTD/svg10.dtd">
<svg version="1.0" xmlns="http://www.w3.org/2000/svg"
 width="100px" height="100px" viewBox="0 0 100.000000 100.000000"
 preserveAspectRatio="xMidYMid meet">

<g transform="translate(0.000000,100.000000) scale(0.100000,-0.100000)"
fill="#000000" stroke="none">
<path d="M187 912 c-15 -17 -17 -60 -17 -414 0 -370 1 -396 18 -411 16 -15 53
-17 314 -17 273 0 296 1 311 18 15 17 17 60 17 414 0 370 -1 396 -18 411 -16
15 -53 17 -314 17 -273 0 -296 -1 -311 -18z m264 -103 c26 -18 29 -26 29 -76
0 -40 -6 -63 -21 -84 -27 -39 -19 -72 21 -89 27 -11 50 -36 50 -54 0 -3 -58
-6 -130 -6 -72 0 -130 3 -130 6 0 18 23 43 50 54 40 17 48 50 21 89 -29 40
-29 128 -1 159 26 28 73 29 111 1z m276 -125 c10 -27 -11 -49 -50 -52 -60 -5
-96 25 -65 56 19 19 107 15 115 -4z m-7 -129 c6 -8 10 -22 8 -32 -3 -15 -13
-18 -57 -18 -61 0 -86 20 -62 49 17 21 94 21 111 1z m7 -171 c3 -9 2 -24 -4
-33 -9 -14 -38 -16 -223 -16 -185 0 -214 2 -223 16 -6 9 -7 24 -4 33 6 14 32
16 227 16 195 0 221 -2 227 -16z m-7 -129 c6 -8 10 -22 8 -32 -3 -17 -20 -18
-228 -18 -208 0 -225 1 -228 18 -9 43 9 47 228 47 169 0 210 -3 220 -15z"/>
</g>
</svg>
